# xmcd
#
# Track frame offsets:
#	187
#	15570
#	36385
#	53770
#	71970
#	88645
#	99867
#	123382
#	137457
#	151450
#
# Disc length: 2225 seconds
#
# Revision: 1
# Processed by: cddbd v1.5.2PL0 Copyright (c) Steve Scherf et al.
# Submitted via: audiograbber 1.83.01
#
DISCID=7e08af0a
DTITLE=William Bolcom and William Albright - Ragtime
DYEAR=1975
DGENRE=Jazz
TTITLE0=William Bolcom - Swipesy Cake Walk
TTITLE1=William Bolcom - Lily Queen
TTITLE2=William Bolcom - Sunflower Slow Drag
TTITLE3=William Bolcom - Something Doing
TTITLE4=William Bolcom - Felicity Rag
TTITLE5=William Albright - Mule-Walk Stomp
TTITLE6=William Albright - Eccentricity - Syncopated Waltz
TTITLE7=William Albright - Modernistic (You've Got to Be)
TTITLE8=William Albright - Snowy Morning Blues
TTITLE9=William Albright - Carolina Shout
EXTD=Recorded 1975, Published 1981, CD 1994.\nTracks 1-5 composed by Scott Jopl
EXTD=in (with collaborators).\nTracks 6-10 composed by James P. Johnson.\nArtis
EXTD=t Names corrected. Track names corrected.
EXTT0=
EXTT1=
EXTT2=
EXTT3=
EXTT4=
EXTT5=
EXTT6=
EXTT7=
EXTT8=
EXTT9=
PLAYORDER=
